<mxfile host="app.diagrams.net" modified="2023-10-10T10:31:23.422Z" agent="Mozilla/5.0 (X11; Linux x86_64) AppleWebKit/537.36 (KHTML, like Gecko) Chrome/117.0.0.0 Safari/537.36" version="21.8.2" etag="yrZVuOWGq_u_rkKtjsCb" type="github">
  <diagram name="Page-1" id="GKtmud5P3DAi7aInefWg">
    <mxGraphModel>
      <root>
        <mxCell id="0" />
        <mxCell id="1" parent="0" />
      </root>
    </mxGraphModel>
  </diagram>
</mxfile>
